<svg xmlns="http://www.w3.org/2000/svg" version="1.1" xmlns:xlink="http://www.w3.org/1999/xlink" xmlns:svgjs="http://svgjs.com/svgjs" width="1440" height="560" preserveAspectRatio="none" viewBox="0 0 1440 560"><g mask="url(&quot;#SvgjsMask1003&quot;)" fill="none"><path d="M64.62 0C104.53 11.64 106.72 40.83 140 40.83C159.89 40.83 148.57 6.53 170.95 0C218.57 -13.89 225.48 0 280 0C350 0 350 0 420 0C485.23 0 487.7 -5.23 550.45 0C557.7 0.6 554.81 11.67 560 11.67C565.95 11.67 564.37 0.7 572.73 0C634.37 -5.14 636.37 0 700 0C755.26 0 778.08 -28.85 810.53 0C848.08 33.37 828.58 124.44 840 124.44C851.2 124.44 820.6 31.26 855.77 0C890.6 -30.96 917.88 0 980 0C1050 0 1050 0 1120 0C1170.55 0 1175.56 -12.31 1221.11 0C1245.56 6.61 1235.03 31.86 1260 37.84C1324.47 53.29 1330.71 48.76 1400 42.86C1470.71 36.84 1502.79 -11.81 1540 14C1572.79 36.76 1540 77 1540 140C1540 210 1540 210 1540 280C1540 350 1540 350 1540 420C1540 490 1575 525 1540 560C1505 595 1470 560 1400 560C1330 560 1330 560 1260 560C1198.6 560 1190.68 572.91 1137.19 560C1120.68 556.01 1129.37 526.21 1120 526.21C1110.13 526.21 1116.32 555.75 1098.7 560C1046.32 572.64 1039.35 560 980 560C910 560 910 560 840 560C770 560 723.81 594.22 700 560C675.11 524.22 742.61 485.19 742.61 420C742.61 391.85 726.85 373.33 700 373.33C644.3 373.33 637.71 394.69 577.5 420C567.71 424.11 563.66 422.48 560 432.17C537.2 492.48 563.72 524.26 524.58 560C493.72 588.18 472.29 560 420 560C363.63 560 356.87 573.29 307.27 560C286.87 554.54 295.28 522.5 280 522.5C262.2 522.5 265.49 553.47 241.11 560C195.49 572.22 190.56 560 140 560C79.34 560 55.92 587.94 18.67 560C-14.08 535.44 7.03 507.7 0 455C-2.31 437.7 0 437.5 0 420C0 350 0 350 0 280C0 210 0 210 0 140C0 70 -22.11 47.89 0 0C10.2 -22.11 34.53 -8.77 64.62 0" stroke="rgba(89, 100, 112, 0.58)" stroke-width="2"></path><path d="M420 112.55C359.78 112.55 303.14 102.64 292.73 140C279.81 186.36 333.67 209.64 373.33 280C397.31 322.54 400.24 365.81 420 365.81C438.36 365.81 443.16 324.4 449.56 280C459.44 211.5 463.89 204.2 452.56 140C449.11 120.48 439.7 112.55 420 112.55" stroke="rgba(25, 31, 94, 1)" stroke-width="2"></path><path d="M700 131.25C694.31 131.25 692 135.56 692 140C692 144.6 694.13 149.33 700 149.33C744.8 149.33 793.33 144.52 793.33 140C793.33 135.48 744.98 131.25 700 131.25" stroke="rgba(89, 100, 112, 0.58)" stroke-width="2"></path><path d="M1120 134.81C1117.7 134.81 1118.26 137.91 1115.56 140C1048.26 191.95 1047.88 191.58 980 242.89C955.26 261.58 930.32 258.79 930.32 280C930.32 305.87 946.74 326.34 980 337.04C1041.58 356.85 1058.16 358.84 1120 341.03C1157.19 330.32 1177.15 316.19 1178.05 280C1179.65 215.67 1152.69 209.26 1125 140C1123.67 136.67 1122.42 134.81 1120 134.81" stroke="rgba(89, 100, 112, 0.58)" stroke-width="2"></path><path d="M140 255.16C127.78 255.16 117.68 266.6 117.68 280C117.68 296.93 127.38 315.81 140 315.81C154.25 315.81 171.43 296.47 171.43 280C171.43 266.15 154.66 255.16 140 255.16" stroke="rgba(25, 31, 94, 1)" stroke-width="2"></path><path d="M62.55 140C99.46 112.32 107.19 121.07 140 89.44C179.81 51.07 165.2 27.21 207.79 0C235.2 -17.51 243.89 0 280 0C350 0 350 0 420 0C445.46 0 470.91 -9.46 470.91 0C470.91 12.5 449.73 29.29 420 43.92C354.27 76.27 346.93 62.93 280 93.97C243.33 110.97 245.39 115.62 212.8 140C175.39 167.99 173.63 166.43 140 198.71C100.71 236.43 102.45 238.48 66.96 280C32.45 320.37 18.85 362.5 0 362.5C-14.63 362.5 0 321.25 0 280C0 237.22 -15.88 229.99 0 194.44C15.39 159.99 29.46 164.82 62.55 140" stroke="rgba(89, 100, 112, 0.58)" stroke-width="2"></path><path d="M533.95 140C541.68 121.51 546.18 108.89 560 108.89C575.2 108.89 577.16 123.35 592 140C647.16 201.91 633.94 243.05 700 266C757.94 286.13 779.5 221.28 840 226.15C866.44 228.28 854.1 255.18 873.87 280C924.1 343.03 916.87 358.55 980 401.85C1018.94 428.55 1069.51 388.5 1078 420C1090.82 467.58 1060.8 505.44 1022.61 560C1011.8 575.44 1001.31 560 980 560C952.78 560 945.53 575.15 925.56 560C875.53 522.05 881.33 507.93 840 453.79C827.9 437.93 831.65 435.15 818.7 420C761.65 353.25 767.18 302.12 700 290C637.83 278.78 621.43 376.23 560 373.33C515.65 371.23 494.22 331.81 488.44 280C481.2 215.15 505.9 207.07 533.95 140" stroke="rgba(25, 31, 94, 1)" stroke-width="2"></path><path d="M700 21.87C689.78 21.87 678.79 6.45 678.79 0C678.79 -4.49 689.39 0 700 0C709.21 0 718.42 -4.28 718.42 0C718.42 6.65 709.59 21.87 700 21.87" stroke="rgba(25, 31, 94, 1)" stroke-width="2"></path><path d="M896 140C874.45 82.28 877.69 45.63 905.07 0C919.69 -24.37 942.54 0 980 0C1050 0 1050 0 1120 0C1146.25 0 1172.5 -13.13 1172.5 0C1172.5 21.88 1147.39 35.91 1120 70C1091.14 105.91 1093.5 108.72 1060 140C1023.5 174.08 1020.35 200.72 980 200.72C938.35 200.72 911.92 182.64 896 140" stroke="rgba(89, 100, 112, 0.58)" stroke-width="2"></path><path d="M1187.5 140C1187.5 104.63 1218.7 90.14 1260 85.14C1324.95 77.28 1331.38 119.47 1400 114.29C1471.38 108.9 1493.67 55.49 1540 64C1563.67 68.35 1540 102 1540 140C1540 182.9 1560.67 194.8 1540 225.81C1514 264.8 1446.67 254.1 1446.67 280C1446.67 305.19 1515.13 290.7 1540 328C1561.8 360.7 1540 374 1540 420C1540 490 1575 525 1540 560C1505 595 1470 560 1400 560C1330 560 1330 560 1260 560C1229.3 560 1207.13 581.33 1198.6 560C1179.13 511.33 1186.72 485.66 1204 420C1217.42 368.99 1236.82 375.28 1260 326.67C1270.2 305.28 1270.77 300.62 1270.77 280C1270.77 274.95 1262.96 280.3 1260 275.33C1221.32 210.3 1187.5 199.73 1187.5 140" stroke="rgba(25, 31, 94, 1)" stroke-width="2"></path><path d="M242.86 280C262.69 256.43 262.3 230.81 280 230.81C296.84 230.81 300.92 253.04 311.93 280C339.54 347.64 367.27 363.44 357.24 420C351.31 453.44 314.06 433.65 280 460C223.59 503.65 232.21 520.06 176.3 560C162.21 570.06 158.15 560 140 560C118.22 560 100.31 576.57 96.44 560C83.97 506.57 90.36 483.41 107.33 420C112.14 402.01 126.21 411.45 140 397.21C193.98 341.45 192.69 339.63 242.86 280" stroke="rgba(25, 31, 94, 1)" stroke-width="2"></path><path d="M352.73 560C352.73 526.46 387.24 456.4 420 456.4C452.08 456.4 482.41 525.83 482.41 560C482.41 577.63 451.21 560 420 560C386.37 560 352.73 578.26 352.73 560" stroke="rgba(25, 31, 94, 1)" stroke-width="2"></path><path d="M137.02 140C137.02 138.98 138.52 138.06 140 138.06C141.41 138.06 142.8 138.98 142.8 140C142.8 141.08 141.42 142.26 140 142.26C138.53 142.26 137.02 141.08 137.02 140" stroke="rgba(89, 100, 112, 0.58)" stroke-width="2"></path><path d="M280 46.03C256.55 46.03 244.63 14.3 244.63 0C244.63 -8.71 262.32 0 280 0C330.91 0 381.82 -10.97 381.82 0C381.82 12.04 325.14 46.03 280 46.03" stroke="rgba(25, 31, 94, 1)" stroke-width="2"></path><path d="M954.33 140C943.88 75.35 943.52 59.17 954.37 0C956.36 -10.83 967.18 0 980 0C1050 0 1050 0 1120 0C1121.95 0 1123.89 -0.97 1123.89 0C1123.89 1.62 1122.1 2.72 1120 5.19C1062.38 72.72 1064.13 74.62 1004.44 140C994.13 151.3 992.33 158.55 980 158.55C967.27 158.55 956.69 154.63 954.33 140" stroke="rgba(89, 100, 112, 0.58)" stroke-width="2"></path><path d="M1250 140C1250 135.12 1254.26 132.43 1260 132.43C1273.26 132.43 1288 133.93 1288 140C1288 147.05 1271.66 158.67 1260 158.67C1252.66 158.67 1250 148.24 1250 140" stroke="rgba(89, 100, 112, 0.58)" stroke-width="2"></path><path d="M1477.24 140C1477.24 126.3 1517.31 114 1540 114C1548.69 114 1540 127 1540 140C1540 154.68 1549.34 169.35 1540 169.35C1517.96 169.35 1477.24 153.97 1477.24 140" stroke="rgba(25, 31, 94, 1)" stroke-width="2"></path><path d="M0 259.26C4.54 259.26 16.23 269.7 16.23 280C16.23 290.07 4.57 300 0 300C-3.55 300 0 290 0 280C0 269.63 -3.58 259.26 0 259.26" stroke="rgba(25, 31, 94, 1)" stroke-width="2"></path><path d="M527.33 280C527.33 243.41 537.34 202.63 560 202.63C587.86 202.63 628.37 246.3 628.37 280C628.37 306.29 590.32 322.61 560 322.61C539.8 322.61 527.33 303.4 527.33 280" stroke="rgba(89, 100, 112, 0.58)" stroke-width="2"></path><path d="M1336.67 420C1336.67 376.06 1357.57 345.64 1400 336.88C1459.24 324.64 1485.65 345.73 1540 378C1555.65 387.29 1540 399 1540 420C1540 490 1561 511 1540 560C1531 581 1509.24 565.09 1480 560C1439.24 552.91 1427.81 562.82 1400 535.65C1356.15 492.82 1336.67 475.44 1336.67 420" stroke="rgba(25, 31, 94, 1)" stroke-width="2"></path><path d="M398.18 560C398.18 549.12 409.37 526.4 420 526.4C430.4 526.4 440.24 548.92 440.24 560C440.24 565.72 430.12 560 420 560C409.09 560 398.18 565.92 398.18 560" stroke="rgba(25, 31, 94, 1)" stroke-width="2"></path></g><defs><mask id="SvgjsMask1003"><rect width="1440" height="560" fill="#ffffff"></rect></mask></defs></svg>